<?xml version="1.0" standalone="no"?><!DOCTYPE svg PUBLIC "-//W3C//DTD SVG 1.1//EN" "http://www.w3.org/Graphics/SVG/1.1/DTD/svg11.dtd"><svg t="1674055144550" class="icon" viewBox="0 0 1024 1024" version="1.1" xmlns="http://www.w3.org/2000/svg" p-id="16268" xmlns:xlink="http://www.w3.org/1999/xlink" width="200" height="200"><path d="M510.3616 615.3728c-20.48 0-40.704-5.376-58.9312-15.872-27.3408-15.7696-46.8992-41.2672-55.0912-71.7824-8.192-30.5152-3.9936-62.3616 11.8272-89.7024 32.5632-56.4736 105.0112-75.8784 161.4848-43.264 56.4736 32.6144 75.8784 105.0624 43.264 161.4848-15.7696 27.3408-41.2672 46.8992-71.7824 55.0912-10.1376 2.7136-20.48 4.0448-30.7712 4.0448z m0.3072-175.0016c-19.6608 0-38.7584 10.1888-49.2544 28.3648-7.5776 13.1584-9.5744 28.416-5.6832 43.1104s13.312 26.88 26.4704 34.4576c13.1584 7.5776 28.416 9.6256 43.1104 5.6832 14.6432-3.9424 26.88-13.312 34.4576-26.4704 15.6672-27.136 6.3488-61.9008-20.7872-77.568a56.3712 56.3712 0 0 0-28.3136-7.5776z" fill="#1296db" p-id="16269"></path><path d="M513.28 940.8c-73.0112 0-140.3392-47.0528-189.6448-132.4544l53.1968-30.72c37.8368 65.5872 86.272 101.7344 136.3968 101.7344s98.56-36.1472 136.3968-101.7344c23.5008-40.8576 41.472-91.4944 52.0704-146.432 7.424-38.7584 11.2128-79.2576 11.2128-120.4736s-3.7888-81.7152-11.2128-120.4736l60.3136-11.6224c8.192 42.5472 12.3392 86.9888 12.3392 132.0448s-4.1472 89.4976-12.3392 132.0448c-11.8272 61.5424-32.256 118.784-59.136 165.5296-49.2544 85.504-116.5824 132.5568-189.5936 132.5568zM264.4992 642.816c-8.192-42.5472-12.3392-86.9888-12.3392-132.0448s4.1472-89.4976 12.3392-132.0448c11.8272-61.5424 32.256-118.784 59.136-165.5296 49.3056-85.4528 116.6336-132.5056 189.6448-132.5056s140.3392 47.0528 189.6448 132.4544l-53.1968 30.72c-37.8368-65.5872-86.272-101.7344-136.3968-101.7344S414.6688 178.2272 376.832 243.8144c-23.5008 40.8576-41.472 91.4944-52.0704 146.432-7.424 38.7584-11.2128 79.2576-11.2128 120.4736s3.7888 81.7152 11.2128 120.4736l-60.2624 11.6224z" fill="#1296db" p-id="16270"></path><path d="M676.5056 823.7056h-0.256l0.0512-61.44h0.2048c75.52 0 130.9184-23.8592 156.0064-67.2256 25.088-43.3664 18.0224-103.3728-19.9168-168.9088-23.6032-40.8576-58.4704-81.7664-100.8128-118.4256-29.696-25.7024-62.8736-49.2032-98.7136-69.888-35.7888-20.6848-72.7552-37.6832-109.8752-50.4832l20.0704-58.0608c40.8064 14.08 81.3568 32.7168 120.5248 55.3984 39.168 22.6304 75.5712 48.4352 108.1856 76.6464 47.4624 41.0624 86.8352 87.3984 113.8176 134.0928 49.408 85.3504 56.4736 167.2192 19.9168 230.4512-36.5056 63.0784-110.7968 97.8432-209.2032 97.8432zM503.2448 792.2176c-40.8064-14.08-81.3568-32.7168-120.5248-55.3984-39.168-22.6304-75.5712-48.4352-108.1856-76.6464-47.4624-41.0624-86.8352-87.4496-113.8176-134.0928-49.3568-85.3504-56.4736-167.168-19.9168-230.4 36.5056-63.1296 110.7968-97.9456 209.2032-97.9456h0.256l-0.0512 61.44h-0.2048c-75.52 0-130.9184 23.8592-156.0064 67.2256-25.088 43.3664-18.0224 103.3728 19.9168 168.9088 23.6032 40.8576 58.4704 81.7664 100.8128 118.4256 29.696 25.7024 62.8736 49.2032 98.7136 69.888 35.7888 20.6848 72.7552 37.6832 109.8752 50.4832l-20.0704 58.112z" fill="#1296db" p-id="16271"></path><path d="M350.0032 823.7056c-98.4064 0-172.6976-34.7648-209.2032-97.9456-36.5568-63.232-29.4912-145.0496 19.9168-230.4512l53.1968 30.7712c-37.9392 65.536-45.0048 125.5424-19.9168 168.9088 25.088 43.3664 80.4864 67.2256 156.0064 67.2256h0.2048c47.2576-0.0512 100.1472-9.7792 152.9856-28.1088 37.12-12.8512 74.0864-29.8496 109.9264-50.5344 35.84-20.6848 69.0176-44.1856 98.6624-69.888l40.192 46.4384c-32.6144 28.2112-68.9664 54.016-108.1856 76.6464-39.168 22.6304-79.7184 41.2672-120.5248 55.3984-59.1872 20.5312-119.04 31.4368-173.0048 31.488-0.0512 0.0512-0.1536 0.0512-0.256 0.0512zM865.792 526.1312l-53.1968-30.7712c37.9392-65.536 45.0048-125.5424 19.9168-168.9088-25.088-43.3664-80.4864-67.2256-156.0064-67.2256h-0.2048c-47.2576 0.0512-100.1472 9.7792-152.9856 28.1088-37.12 12.8512-74.0864 29.8496-109.9264 50.5344-35.84 20.6848-69.0176 44.1856-98.6624 69.888l-40.192-46.4384c32.6144-28.2112 68.9664-54.016 108.1856-76.6464 39.168-22.6304 79.7184-41.2672 120.5248-55.3984 59.1872-20.5312 119.04-31.4368 173.0048-31.488h0.256c98.4064 0 172.6976 34.7648 209.2032 97.9456 36.5568 63.1808 29.4912 144.9984-19.9168 230.4z" fill="#1296db" p-id="16272"></path></svg>